<svg xmlns="http://www.w3.org/2000/svg" viewBox="216 190 855 855">
  <!-- Transparent background. Mark color flips based on browser theme
       so it stays visible against both light and dark tab backgrounds. -->
  <style>
    path { fill: #16161D; }
    @media (prefers-color-scheme: dark) {
      path { fill: #FBF8F1; }
    }
  </style>
  <path d="M 737.500 190.675 C 684.097 194.033, 631.147 214.275, 585.498 248.783 L 581.496 251.809 573.498 246.828 C 523.158 215.483, 461.864 209.168, 408.938 229.873 C 392.891 236.150, 392.988 235.967, 403.046 241.020 C 433.932 256.537, 460.026 284.138, 478.290 320.607 C 482.784 329.581, 492 351.832, 492 353.709 C 492 354.267, 490.160 358.048, 487.911 362.112 C 438.283 451.780, 418.903 574.688, 436.053 691 C 452.299 801.182, 502.620 910.147, 577.829 998 C 589.689 1011.854, 623.757 1046.576, 624.632 1045.701 C 624.901 1045.432, 621.530 1037.402, 617.142 1027.856 C 561.646 907.133, 540.257 767.537, 556.565 632.500 C 575.988 471.665, 653.203 348.169, 777.192 279.634 C 810.135 261.424, 851.791 245.715, 886.369 238.461 C 895.629 236.519, 895.874 237.072, 881.500 227.478 C 842.925 201.732, 787.387 187.538, 737.500 190.675 M 701.059 400.575 C 669.100 431.643, 645.626 467.416, 631.381 506.760 L 628.028 516.021 630.546 529.760 C 639.874 580.666, 658.479 619.329, 687.685 648.500 C 695.841 656.646, 709.454 668, 711.066 668 C 711.639 668, 712.008 629.027, 712.020 567.250 C 712.039 468.407, 712.804 427.089, 715.082 401.837 C 715.711 394.873, 716.035 388.606, 715.804 387.912 C 715.564 387.193, 709.226 392.636, 701.059 400.575" fill-rule="evenodd"/>
</svg>
